<svg width="20" height="19" viewBox="0 0 20 19" fill="none" xmlns="http://www.w3.org/2000/svg">
<path fill-rule="evenodd" clip-rule="evenodd" d="M6.88705 10.2148L6.4203 13.6185C6.19657 15.25 7.32953 16.7548 8.95509 16.994C8.89011 16.8572 8.83469 16.7138 8.78988 16.5643L6.88705 10.2148Z" fill="white"/>
<path fill-rule="evenodd" clip-rule="evenodd" d="M6.13932 8.65583L4.20132 11.4925C3.27234 12.8523 3.61381 14.7046 4.9613 15.6448C4.96426 15.4934 4.97874 15.3404 5.00544 15.1866L6.13932 8.65583Z" fill="white"/>
<path fill-rule="evenodd" clip-rule="evenodd" d="M8.62481 1.89587C7.0377 2.3715 6.13666 4.04369 6.61229 5.63081L9.17866 14.1944C9.65429 15.7815 11.3265 16.6825 12.9136 16.2069L16.3661 15.1723C17.9532 14.6966 18.8543 13.0244 18.3786 11.4373L15.8123 2.87373C15.3366 1.28661 13.6644 0.385579 12.0773 0.861212L8.62481 1.89587ZM8.45898 5.28763C8.8824 5.16074 9.12278 4.71463 8.99589 4.29121C8.869 3.8678 8.42289 3.62741 7.99947 3.75431C7.57605 3.8812 7.33567 4.32731 7.46256 4.75073C7.58945 5.17414 8.03557 5.41452 8.45898 5.28763Z" fill="white"/>
</svg>
