<?xml version="1.0" encoding="UTF-8" standalone="no"?>
<!DOCTYPE svg PUBLIC "-//W3C//DTD SVG 1.1//EN" "http://www.w3.org/Graphics/SVG/1.1/DTD/svg11.dtd">
<svg width="100%" height="100%" viewBox="0 0 31 24" version="1.1" xmlns="http://www.w3.org/2000/svg" xmlns:xlink="http://www.w3.org/1999/xlink" xml:space="preserve" xmlns:serif="http://www.serif.com/" style="fill-rule:evenodd;clip-rule:evenodd;stroke-linejoin:round;stroke-miterlimit:2;">
    <g transform="matrix(1,0,0,1,-2336,-1522)">
        <g transform="matrix(0.2817,0,0,0.245927,1681.36,1166.84)">
            <g transform="matrix(3.54988,0,0,4.06625,-5965.16,-4745.9)">
                <rect x="2335.68" y="1523.06" width="29.976" height="22.98" style="fill:none;"/>
            </g>
            <g>
                <g transform="matrix(4.82191,0,0,4.82191,2329.36,1450.49)">
                    <path d="M9.431,0.08C9.773,-0.157 10.227,-0.157 10.569,0.08L16.03,3.864C16.836,4.422 16.441,5.686 15.461,5.686L4.539,5.686C3.559,5.686 3.164,4.422 3.97,3.864L9.431,0.08Z" style="fill:rgb(255,204,11);fill-rule:nonzero;"/>
                </g>
                <g transform="matrix(4.82191,0,0,4.82191,2343.82,1482.72)">
                    <path d="M1,0C0.448,0 0,0.448 0,1L0,11C0,11.552 0.448,12 1,12L3.841,12C3.752,11.85 3.7,11.675 3.7,11.487L3.7,8.615C3.7,8.063 4.148,7.615 4.7,7.615L9.667,7.615C10.219,7.615 10.667,8.063 10.667,8.615L10.667,11.487C10.667,11.675 10.615,11.85 10.525,12L13,12C13.552,12 14,11.552 14,11L14,1C14,0.448 13.552,0 13,0L1,0Z" style="fill-opacity:0.2;"/>
                </g>
            </g>
            <g transform="matrix(4.82191,0,0,4.82191,2343.82,1482.72)">
                <path d="M1,0C0.448,0 0,0.448 0,1L0,11C0,11.552 0.448,12 1,12L3.841,12C3.752,11.85 3.7,11.675 3.7,11.487L3.7,8.615C3.7,8.063 4.148,7.615 4.7,7.615L9.667,7.615C10.219,7.615 10.667,8.063 10.667,8.615L10.667,11.487C10.667,11.675 10.615,11.85 10.525,12L13,12C13.552,12 14,11.552 14,11L14,1C14,0.448 13.552,0 13,0L1,0Z" style="fill:rgb(107,81,48);"/>
            </g>
        </g>
    </g>
</svg>
