<?xml version="1.0" encoding="UTF-8" standalone="no"?>
<!DOCTYPE svg PUBLIC "-//W3C//DTD SVG 1.1//EN" "http://www.w3.org/Graphics/SVG/1.1/DTD/svg11.dtd">
<svg width="100%" height="100%" viewBox="0 0 221 170" version="1.1" xmlns="http://www.w3.org/2000/svg" xmlns:xlink="http://www.w3.org/1999/xlink" xml:space="preserve" xmlns:serif="http://www.serif.com/" style="fill-rule:evenodd;clip-rule:evenodd;stroke-linecap:round;stroke-linejoin:round;stroke-miterlimit:1.5;">
    <g transform="matrix(1,0,0,1,-858,-1480)">
        <g transform="matrix(1,0,0,1.47902,0,1301.76)">
            <g transform="matrix(0.671668,0,0,0.425807,-895.44,9.64975)">
                <g transform="matrix(1.09916,0,0,1.09916,-836.779,-378.824)">
                    <circle cx="3286.84" cy="678.638" r="91.648" style="fill:white;stroke:rgb(255,204,11);stroke-width:8.16px;"/>
                </g>
                <g transform="matrix(1.09631,0,0,2.60855,2557.13,282.366)">
                    <g transform="matrix(1,0,0,0.420278,-199.911,-40.0413)">
                        <g>
                            <g transform="matrix(0.264229,-0.0107707,0.0107707,0.264229,216.868,71.5872)">
                                <path d="M479.847,304.405C479.847,304.405 420.07,364.182 394.992,389.26C392.175,392.077 390.57,396.005 390.56,400.113C390.549,404.22 392.133,408.14 394.935,410.942C419.98,435.987 479.847,495.854 479.847,495.854" style="fill:none;stroke:black;stroke-width:19.14px;"/>
                            </g>
                            <g transform="matrix(-0.264448,-8.7209e-17,8.7209e-17,-0.264448,578.003,278.474)">
                                <path d="M479.847,304.405C479.847,304.405 420.029,364.223 394.966,389.286C392.156,392.096 390.561,396.021 390.561,400.129C390.561,404.238 392.156,408.163 394.966,410.973C420.029,436.036 479.847,495.854 479.847,495.854" style="fill:none;stroke:black;stroke-width:19.14px;"/>
                            </g>
                            <g transform="matrix(8.16149e-17,1.47445,-1.52773,1.05905e-16,744.023,-187.122)">
                                <path d="M247.801,238.045C247.828,228.52 247.882,209.688 247.882,209.688L225.82,205.532C225.82,205.532 225.773,205.647 225.503,219.357" style="fill:none;stroke:black;stroke-width:3.1px;"/>
                            </g>
                            <g transform="matrix(2.5929,0,0,2.5929,-487.363,-382.251)">
                                <path d="M334.651,199.694C334.651,199.694 334.203,198.922 332.413,198.669C330.622,198.415 327.105,198.669 327.105,198.669" style="fill:none;stroke:black;stroke-width:1.8px;"/>
                            </g>
                            <g transform="matrix(2.78864,0,0,2.78864,-552.41,-447.613)">
                                <circle cx="331.776" cy="234.025" r="2.711" style="fill:none;stroke:black;stroke-width:1.67px;"/>
                            </g>
                            <g transform="matrix(2.78864,0,0,2.78864,-495.794,-447.613)">
                                <circle cx="331.776" cy="234.025" r="2.711" style="fill:none;stroke:black;stroke-width:1.67px;"/>
                            </g>
                            <g transform="matrix(2.49173,0,0,2.78864,-448.988,-446.307)">
                                <path d="M329.025,221.699C329.025,221.699 328.967,223.559 328.912,225.327C328.887,226.15 329.235,226.947 329.878,227.536C330.52,228.126 331.403,228.458 332.324,228.456C339.579,228.447 355.558,228.427 355.558,228.427" style="fill:none;stroke:black;stroke-width:1.76px;"/>
                            </g>
                        </g>
                    </g>
                    <g transform="matrix(1,0,0,0.420278,-0.0298269,0.417739)">
                        <path d="M180.552,73.858C180.554,74.556 180.822,75.222 181.293,75.705C181.765,76.189 182.4,76.447 183.053,76.421C190.116,76.145 210.16,75.359 216.521,75.11C217.672,75.065 218.643,74.183 218.868,72.979C219.58,69.181 221.097,61.085 221.841,57.11C221.951,56.526 221.821,55.921 221.484,55.446C221.148,54.972 220.637,54.673 220.081,54.626C213.472,54.071 193.651,52.403 184.817,51.66C183.702,51.566 182.601,51.974 181.78,52.785C180.96,53.596 180.495,54.736 180.499,55.929C180.515,61.192 180.54,69.598 180.552,73.858Z" style="fill:rgb(255,204,11);"/>
                    </g>
                </g>
            </g>
            <g transform="matrix(0.930974,0,0,0.629454,423.385,-29.714)">
                <g transform="matrix(2.87279,0,0,2.87279,-1574.58,-379.554)">
                    <g transform="matrix(12,0,0,12,793.421,276.271)">
                    </g>
                    <text x="710.873px" y="276.271px" style="font-family:'AmericanTypewriter', 'American Typewriter', serif;font-size:12px;">tag/commerce</text>
                </g>
            </g>
        </g>
    </g>
</svg>
