<?xml version="1.0" encoding="UTF-8" standalone="no"?>
<!DOCTYPE svg PUBLIC "-//W3C//DTD SVG 1.1//EN" "http://www.w3.org/Graphics/SVG/1.1/DTD/svg11.dtd">
<svg width="100%" height="100%" viewBox="0 0 31 24" version="1.1" xmlns="http://www.w3.org/2000/svg" xmlns:xlink="http://www.w3.org/1999/xlink" xml:space="preserve" xmlns:serif="http://www.serif.com/" style="fill-rule:evenodd;clip-rule:evenodd;stroke-linejoin:round;stroke-miterlimit:2;">
    <g transform="matrix(1,0,0,1,-2470,-1521)">
        <g transform="matrix(0.260664,0,0,0.26166,1705.77,1137.64)">
            <g transform="matrix(3.83636,0,0,3.82175,-6027.71,-4353.58)">
                <rect x="2335.68" y="1523.06" width="29.976" height="22.98" style="fill:none;"/>
            </g>
            <g transform="matrix(4.82191,0,0,4.82191,2961.03,1482.72)">
                <path d="M0.131,0.504C0.048,0.65 0,0.82 0,1L0,11C0,11.552 0.448,12 1,12L15,12C15.552,12 16,11.552 16,11L16,1C16,0.884 15.98,0.773 15.944,0.67C15.944,0.67 9.221,4.832 8.14,5.501C8.051,5.557 7.938,5.555 7.85,5.499C6.782,4.807 0.131,0.504 0.131,0.504ZM1.193,0L15,0C15.039,0 15.078,0.002 15.116,0.007L8.006,4.408L1.193,0Z" style="fill:rgb(134,101,60);"/>
            </g>
            <g transform="matrix(4.82191,0,0,4.82191,2961.03,1482.72)">
                <path d="M0.131,0.504C0.048,0.65 0,0.82 0,1L0,11C0,11.552 0.448,12 1,12L15,12C15.552,12 16,11.552 16,11L16,1C16,0.884 15.98,0.773 15.944,0.67C15.944,0.67 9.21,4.839 8.137,5.503C8.05,5.557 7.939,5.556 7.853,5.5C6.792,4.814 0.131,0.504 0.131,0.504ZM1.193,0L15,0C15.039,0 15.078,0.002 15.116,0.007L8.006,4.408L1.193,0Z" style="fill-opacity:0.2;"/>
            </g>
            <g transform="matrix(4.62259,0,0,4.62259,-8474.33,-5715.75)">
                <path d="M2472.58,1560.15L2472.58,1569.36C2472.58,1570.11 2473.19,1570.71 2473.93,1570.71L2488.47,1570.71L2488.47,1571.69C2488.47,1572.44 2487.87,1573.04 2487.12,1573.04L2471.6,1573.04C2470.85,1573.04 2470.25,1572.44 2470.25,1571.69L2470.25,1561.5C2470.25,1560.76 2470.85,1560.15 2471.6,1560.15L2472.58,1560.15Z" style="fill:rgb(107,81,48);"/>
            </g>
            <g transform="matrix(4.82191,0,0,4.82191,2962.02,1481.52)">
                <path d="M8.133,5.022C7.928,5.16 7.66,5.16 7.455,5.022C6.223,4.191 1.975,1.33 0.505,0.34C0.437,0.294 0.407,0.21 0.431,0.132C0.455,0.053 0.528,-0 0.61,0C3.071,0 12.267,0 14.888,0C14.982,0 15.065,0.061 15.093,0.151C15.121,0.241 15.086,0.338 15.008,0.391C13.473,1.425 9.345,4.205 8.133,5.022Z" style="fill:rgb(255,204,11);fill-rule:nonzero;"/>
            </g>
        </g>
    </g>
</svg>
