<?xml version="1.0" encoding="UTF-8" standalone="no"?>
<!DOCTYPE svg PUBLIC "-//W3C//DTD SVG 1.1//EN" "http://www.w3.org/Graphics/SVG/1.1/DTD/svg11.dtd">
<svg width="100%" height="100%" viewBox="0 0 25 30" version="1.1" xmlns="http://www.w3.org/2000/svg" xmlns:xlink="http://www.w3.org/1999/xlink" xml:space="preserve" xmlns:serif="http://www.serif.com/" style="fill-rule:evenodd;clip-rule:evenodd;stroke-linejoin:round;stroke-miterlimit:2;">
    <g transform="matrix(1,0,0,1,-2567,-1516)">
        <g transform="matrix(0.347558,0,0,0.347558,1417.84,1008.29)">
            <g transform="matrix(4.82191,0,0,4.82191,3308.21,1477.9)">
                <path d="M6,0C5.448,0 5,0.448 5,1C5,1.432 4.477,1.649 4.172,1.343C3.781,0.953 3.148,0.953 2.757,1.343L1.343,2.757C0.953,3.148 0.953,3.781 1.343,4.172C1.649,4.477 1.432,5 1,5C0.448,5 0,5.448 0,6L0,8C0,8.552 0.448,9 1,9C1.432,9 1.649,9.523 1.343,9.828C0.953,10.219 0.953,10.852 1.343,11.243L2.757,12.657C3.148,13.047 3.781,13.047 4.172,12.657C4.477,12.351 5,12.568 5,13C5,13.552 5.448,14 6,14L8,14C8.552,14 9,13.552 9,13C9,12.568 9.523,12.351 9.828,12.657C10.219,13.047 10.852,13.047 11.243,12.657L12.657,11.243C13.047,10.852 13.047,10.219 12.657,9.828C12.351,9.523 12.568,9 13,9C13.552,9 14,8.552 14,8L14,6C14,5.448 13.552,5 13,5C12.568,5 12.351,4.477 12.657,4.172C13.047,3.781 13.047,3.148 12.657,2.757L11.243,1.343C10.852,0.953 10.219,0.953 9.828,1.343C9.523,1.649 9,1.432 9,1C9,0.448 8.552,0 8,0L6,0ZM7.828,5L6.172,5L5,6.172L5,7.828L6.172,9L7.828,9L9,7.828L9,6.172L7.828,5Z" style="fill:rgb(134,101,60);"/>
            </g>
            <g transform="matrix(4.82191,0,0,4.82191,3308.21,1477.9)">
                <path d="M6,0C5.448,0 5,0.448 5,1C5,1.432 4.477,1.649 4.172,1.343C3.781,0.953 3.148,0.953 2.757,1.343L1.343,2.757C0.953,3.148 0.953,3.781 1.343,4.172C1.649,4.477 1.432,5 1,5C0.448,5 0,5.448 0,6L0,8C0,8.552 0.448,9 1,9C1.432,9 1.649,9.523 1.343,9.828C0.953,10.219 0.953,10.852 1.343,11.243L2.757,12.657C3.148,13.047 3.781,13.047 4.172,12.657C4.477,12.351 5,12.568 5,13C5,13.552 5.448,14 6,14L8,14C8.552,14 9,13.552 9,13C9,12.568 9.523,12.351 9.828,12.657C10.219,13.047 10.852,13.047 11.243,12.657L12.657,11.243C13.047,10.852 13.047,10.219 12.657,9.828C12.351,9.523 12.568,9 13,9C13.552,9 14,8.552 14,8L14,6C14,5.448 13.552,5 13,5C12.568,5 12.351,4.477 12.657,4.172C13.047,3.781 13.047,3.148 12.657,2.757L11.243,1.343C10.852,0.953 10.219,0.953 9.828,1.343C9.523,1.649 9,1.432 9,1C9,0.448 8.552,0 8,0L6,0ZM7.828,5L6.172,5L5,6.172L5,7.828L6.172,9L7.828,9L9,7.828L9,6.172L7.828,5Z" style="fill-opacity:0.2;"/>
            </g>
            <g transform="matrix(4.82191,0,0,4.82191,3351.6,1463.44)">
                <path d="M1.714,0C1.556,0 1.429,0.128 1.429,0.286C1.429,0.409 1.279,0.471 1.192,0.384C1.08,0.272 0.899,0.272 0.788,0.384L0.384,0.788C0.272,0.899 0.272,1.08 0.384,1.192C0.471,1.279 0.409,1.429 0.286,1.429C0.128,1.429 0,1.556 0,1.714L0,2.286C0,2.444 0.128,2.571 0.286,2.571C0.409,2.571 0.471,2.721 0.384,2.808C0.272,2.92 0.272,3.101 0.384,3.212L0.788,3.616C0.899,3.728 1.08,3.728 1.192,3.616C1.279,3.529 1.429,3.591 1.429,3.714C1.429,3.872 1.556,4 1.714,4L2.286,4C2.444,4 2.571,3.872 2.571,3.714C2.571,3.591 2.721,3.529 2.808,3.616C2.92,3.728 3.101,3.728 3.212,3.616L3.616,3.212C3.728,3.101 3.728,2.92 3.616,2.808C3.529,2.721 3.591,2.571 3.714,2.571C3.872,2.571 4,2.444 4,2.286L4,1.714C4,1.556 3.872,1.429 3.714,1.429C3.591,1.429 3.529,1.279 3.616,1.192C3.728,1.08 3.728,0.899 3.616,0.788L3.212,0.384C3.101,0.272 2.92,0.272 2.808,0.384C2.721,0.471 2.571,0.409 2.571,0.286C2.571,0.128 2.444,0 2.286,0L1.714,0ZM2.237,1.429L1.763,1.429L1.429,1.763L1.429,2.237L1.763,2.571L2.237,2.571L2.571,2.237L2.571,1.763L2.237,1.429Z" style="fill:rgb(255,204,11);"/>
            </g>
        </g>
    </g>
</svg>
