<?xml version="1.0" encoding="UTF-8" standalone="no"?>
<!DOCTYPE svg PUBLIC "-//W3C//DTD SVG 1.1//EN" "http://www.w3.org/Graphics/SVG/1.1/DTD/svg11.dtd">
<svg width="100%" height="100%" viewBox="0 0 31 24" version="1.1" xmlns="http://www.w3.org/2000/svg" xmlns:xlink="http://www.w3.org/1999/xlink" xml:space="preserve" xmlns:serif="http://www.serif.com/" style="fill-rule:evenodd;clip-rule:evenodd;stroke-linejoin:round;stroke-miterlimit:2;">
    <g transform="matrix(1,0,0,1,-2408,-1522)">
        <g transform="matrix(0.275951,0,0,0.233586,1676.02,1184.42)">
            <g transform="matrix(3.62383,0,0,4.28108,-5810.58,-5072.52)">
                <rect x="2335.68" y="1523.06" width="29.976" height="22.98" style="fill:none;"/>
            </g>
            <g transform="matrix(4.75071,0,0,4.75071,2657.25,1493.15)">
                <path d="M1,0C0.448,0 0,0.448 0,1L0,10C0,10.552 0.448,11 1,11L20,11C20.552,11 21,10.552 21,10L21,1C21,0.448 20.552,0 20,0L1,0ZM10.5,9C12.433,9 14,7.433 14,5.5C14,3.567 12.433,2 10.5,2C8.567,2 7,3.567 7,5.5C7,7.433 8.567,9 10.5,9Z" style="fill:rgb(107,81,48);"/>
            </g>
            <g transform="matrix(4.51892,0,0,5.33851,-8233.46,-6757.02)">
                <circle cx="2414.22" cy="1542.99" r="2.647" style="fill:rgb(255,204,11);"/>
            </g>
            <g transform="matrix(4.51892,0,0,5.33851,-8233.46,-6726.37)">
                <circle cx="2414.22" cy="1542.99" r="2.647" style="fill:rgb(255,204,11);"/>
            </g>
            <g transform="matrix(6.95779,0,0,8.09097,2692.6,1536.47)">
                <path d="M0.42,-2.434L0.42,-2.71L0.822,-2.71C0.91,-3.034 1.078,-3.3 1.326,-3.508C1.574,-3.72 1.88,-3.826 2.244,-3.826C2.704,-3.826 3.06,-3.726 3.312,-3.526L3.408,-2.818L3.048,-2.782L2.934,-3.364C2.778,-3.444 2.566,-3.484 2.298,-3.484C2.034,-3.484 1.814,-3.414 1.638,-3.274C1.466,-3.134 1.346,-2.946 1.278,-2.71L2.424,-2.71L2.424,-2.434L1.224,-2.434C1.22,-2.398 1.216,-2.36 1.212,-2.32L1.212,-2.08C1.216,-2.04 1.22,-2 1.224,-1.96L2.274,-1.96L2.274,-1.69L1.284,-1.69C1.44,-1.198 1.782,-0.952 2.31,-0.952C2.418,-0.952 2.528,-0.962 2.64,-0.982C2.752,-1.002 2.856,-1.034 2.952,-1.078L3.066,-1.654L3.426,-1.618L3.33,-0.904C3.206,-0.82 3.048,-0.748 2.856,-0.688C2.668,-0.632 2.46,-0.604 2.232,-0.604C1.876,-0.604 1.574,-0.704 1.326,-0.904C1.082,-1.104 0.916,-1.366 0.828,-1.69L0.42,-1.69L0.42,-1.96L0.774,-1.96C0.77,-2 0.766,-2.04 0.762,-2.08L0.762,-2.314C0.762,-2.354 0.766,-2.394 0.774,-2.434L0.42,-2.434Z" style="fill:rgb(255,204,11);fill-rule:nonzero;"/>
            </g>
        </g>
    </g>
</svg>
