<?xml version="1.0" encoding="UTF-8" standalone="no"?>
<!DOCTYPE svg PUBLIC "-//W3C//DTD SVG 1.1//EN" "http://www.w3.org/Graphics/SVG/1.1/DTD/svg11.dtd">
<svg width="100%" height="100%" viewBox="0 0 31 24" version="1.1" xmlns="http://www.w3.org/2000/svg" xmlns:xlink="http://www.w3.org/1999/xlink" xml:space="preserve" xmlns:serif="http://www.serif.com/" style="fill-rule:evenodd;clip-rule:evenodd;stroke-linejoin:round;stroke-miterlimit:2;">
    <g transform="matrix(1,0,0,1,-2372,-1523)">
        <g transform="matrix(0.229366,0,0,0.229366,1804.47,1191.01)">
            <g transform="matrix(4.35985,0,0,4.35985,-7706,-5191.64)">
                <rect x="2335.68" y="1523.06" width="29.976" height="22.98" style="fill:none;"/>
            </g>
            <g transform="matrix(4.82191,0,0,4.82191,2478.84,1472.16)">
                <path d="M0,1C0,0.448 0.448,0 1,0L15,0C15.552,0 16,0.448 16,1L16,15C16,15.552 15.552,16 15,16L1,16C0.448,16 0,15.552 0,15L0,1Z" style="fill:rgb(134,101,60);fill-rule:nonzero;"/>
            </g>
            <g transform="matrix(4.82191,0,0,4.82191,2478.84,1472.16)">
                <path d="M0,1C0,0.448 0.448,0 1,0L15,0C15.552,0 16,0.448 16,1L16,15C16,15.552 15.552,16 15,16L1,16C0.448,16 0,15.552 0,15L0,1Z" style="fill-opacity:0.2;fill-rule:nonzero;"/>
            </g>
            <g transform="matrix(4.82191,0,0,4.82191,2560.81,1510.73)">
                <path d="M0,1C0,0.448 0.448,0 1,0L7,0C7.552,0 8,0.448 8,1L8,7C8,7.552 7.552,8 7,8L1,8C0.448,8 0,7.552 0,7L0,1Z" style="fill:rgb(134,101,60);fill-rule:nonzero;"/>
            </g>
            <g transform="matrix(4.82191,0,0,4.82191,2560.81,1510.73)">
                <path d="M0,1C0,0.448 0.448,0 1,0L7,0C7.552,0 8,0.448 8,1L8,7C8,7.552 7.552,8 7,8L1,8C0.448,8 0,7.552 0,7L0,1Z" style="fill-opacity:0.2;fill-rule:nonzero;"/>
            </g>
            <g transform="matrix(4.1759,-2.41096,2.41096,4.1759,2548.93,1464.75)">
                <path d="M0,3.928C0,3.376 0.448,2.928 1,2.928L7,2.928C7.552,2.928 8,3.376 8,3.928L8,9.928C8,10.481 7.552,10.928 7,10.928L1,10.928C0.448,10.928 0,10.481 0,9.928L0,3.928Z" style="fill:rgb(255,204,11);fill-rule:nonzero;"/>
            </g>
        </g>
    </g>
</svg>
