<svg width="17" height="13" viewBox="0 0 17 13" fill="none" xmlns="http://www.w3.org/2000/svg">
<ellipse cx="4.06522" cy="11.1945" rx="1.84783" ry="1.80556" fill="white"/>
<ellipse cx="12.9348" cy="11.1945" rx="1.84783" ry="1.80556" fill="white"/>
<path fill-rule="evenodd" clip-rule="evenodd" d="M0 1C0 0.447716 0.447715 0 1 0H10.8261C11.3784 0 11.8261 0.447715 11.8261 1V3.91204L16.0812 4.25851C16.6003 4.30078 17 4.7344 17 5.25522V10.5556C17 11.1078 16.5523 11.5556 16 11.5556H15.4955C15.5128 11.4376 15.5217 11.317 15.5217 11.1944C15.5217 9.79839 14.3635 8.66667 12.9348 8.66667C11.506 8.66667 10.3478 9.79839 10.3478 11.1944C10.3478 11.317 10.3568 11.4376 10.374 11.5556H9.13043H6.62598C6.64324 11.4376 6.65217 11.317 6.65217 11.1944C6.65217 9.79839 5.49395 8.66667 4.06522 8.66667C2.63648 8.66667 1.47826 9.79839 1.47826 11.1944C1.47826 11.317 1.48719 11.4376 1.50446 11.5556H1C0.447716 11.5556 0 11.1078 0 10.5556V1ZM12.2496 4.19737L11.6957 4.13722V4.69444V7.22222V7.72222H12.1957H15.5217H16.0217V7.22222V5.05556V4.6069L15.5757 4.55848L12.2496 4.19737ZM12.6957 6.72222V5.25167L15.0217 5.50421V6.72222H12.6957Z" fill="white"/>
</svg>
