<?xml version="1.0" encoding="UTF-8" standalone="no"?>
<!DOCTYPE svg PUBLIC "-//W3C//DTD SVG 1.1//EN" "http://www.w3.org/Graphics/SVG/1.1/DTD/svg11.dtd">
<svg width="100%" height="100%" viewBox="0 0 31 24" version="1.1" xmlns="http://www.w3.org/2000/svg" xmlns:xlink="http://www.w3.org/1999/xlink" xml:space="preserve" xmlns:serif="http://www.serif.com/" style="fill-rule:evenodd;clip-rule:evenodd;stroke-linejoin:round;stroke-miterlimit:2;">
    <g transform="matrix(1,0,0,1,-2441,-1523)">
        <g transform="matrix(0.237347,0,0,0.237347,1776.36,1179.3)">
            <g transform="matrix(4.21323,0,0,4.21323,-7037.26,-4967.7)">
                <rect x="2335.68" y="1523.06" width="29.976" height="22.98" style="fill:none;"/>
            </g>
            <g transform="matrix(0,-4.82191,-4.82191,0,2855.48,1545.41)">
                <circle cx="2.222" cy="2.222" r="2.222" style="fill:rgb(255,204,11);"/>
            </g>
            <g transform="matrix(0,-4.82191,-4.82191,0,2906.92,1545.41)">
                <circle cx="2.222" cy="2.222" r="2.222" style="fill:rgb(255,204,11);"/>
            </g>
            <g transform="matrix(4.82191,0,0,4.82191,2821.19,1468.26)">
                <path d="M0,1C0,0.448 0.448,0 1,0L13.222,0C13.775,0 14.222,0.448 14.222,1L14.222,4.815L19.527,5.257C20.046,5.3 20.444,5.733 20.444,6.253L20.444,13.222C20.444,13.775 19.997,14.222 19.444,14.222L18.635,14.222C18.656,14.077 18.667,13.929 18.667,13.778C18.667,12.06 17.274,10.667 15.556,10.667C13.837,10.667 12.444,12.06 12.444,13.778C12.444,13.929 12.455,14.077 12.476,14.222L7.968,14.222C7.989,14.077 8,13.929 8,13.778C8,12.06 6.607,10.667 4.889,10.667C3.171,10.667 1.778,12.06 1.778,13.778C1.778,13.929 1.789,14.077 1.809,14.222L1,14.222C0.448,14.222 0,13.775 0,13.222L0,1ZM18.722,5.725L14.167,5.219L14.167,9.389L19.167,9.389L19.167,5.775L18.722,5.725ZM15.167,8.389L15.167,6.336L18.167,6.67L18.167,8.389L15.167,8.389Z" style="fill:rgb(134,101,60);"/>
            </g>
            <g transform="matrix(4.82191,0,0,4.82191,2821.19,1468.26)">
                <path d="M0,1C0,0.448 0.448,0 1,0L13.222,0C13.775,0 14.222,0.448 14.222,1L14.222,4.815L19.527,5.257C20.046,5.3 20.444,5.733 20.444,6.253L20.444,13.222C20.444,13.775 19.997,14.222 19.444,14.222L18.635,14.222C18.656,14.077 18.667,13.929 18.667,13.778C18.667,12.06 17.274,10.667 15.556,10.667C13.837,10.667 12.444,12.06 12.444,13.778C12.444,13.929 12.455,14.077 12.476,14.222L7.968,14.222C7.989,14.077 8,13.929 8,13.778C8,12.06 6.607,10.667 4.889,10.667C3.171,10.667 1.778,12.06 1.778,13.778C1.778,13.929 1.789,14.077 1.809,14.222L1,14.222C0.448,14.222 0,13.775 0,13.222L0,1ZM18.722,5.725L14.167,5.219L14.167,9.389L19.167,9.389L19.167,5.775L18.722,5.725ZM15.167,8.389L15.167,6.336L18.167,6.67L18.167,8.389L15.167,8.389Z" style="fill-opacity:0.2;"/>
            </g>
        </g>
    </g>
</svg>
