<?xml version="1.0" encoding="UTF-8" standalone="no"?>
<!DOCTYPE svg PUBLIC "-//W3C//DTD SVG 1.1//EN" "http://www.w3.org/Graphics/SVG/1.1/DTD/svg11.dtd">
<svg width="100%" height="100%" viewBox="0 0 31 24" version="1.1" xmlns="http://www.w3.org/2000/svg" xmlns:xlink="http://www.w3.org/1999/xlink" xml:space="preserve" xmlns:serif="http://www.serif.com/" style="fill-rule:evenodd;clip-rule:evenodd;stroke-linejoin:round;stroke-miterlimit:2;">
    <g transform="matrix(1,0,0,1,-2501,-1520)">
        <g transform="matrix(0.283544,0,0,0.216329,1637.63,1209.98)">
            <g transform="matrix(3.52679,0,0,4.62259,-5191.03,-5605.69)">
                <rect x="2335.68" y="1523.06" width="29.976" height="22.98" style="fill:none;"/>
            </g>
            <g transform="matrix(4.82191,0,0,4.82191,3083.69,1470.07)">
                <path d="M1.625,0L1,0C0.448,0 0,0.448 0,1L0,11.188C0,11.74 0.448,12.188 1,12.188L7.125,12.188C7.677,12.188 8.125,11.74 8.125,11.188L8.125,10.563L2.625,10.563C2.073,10.563 1.625,10.115 1.625,9.563L1.625,0Z" style="fill:rgb(134,101,60);"/>
            </g>
            <g transform="matrix(4.82191,0,0,4.82191,3083.69,1470.07)">
                <path d="M1.625,0L1,0C0.448,0 0,0.448 0,1L0,11.188C0,11.74 0.448,12.188 1,12.188L7.125,12.188C7.677,12.188 8.125,11.74 8.125,11.188L8.125,10.563L2.625,10.563C2.073,10.563 1.625,10.115 1.625,9.563L1.625,0Z" style="fill-opacity:0.2;"/>
            </g>
            <g transform="matrix(3.52679,0,0,4.62259,-5775.58,-5593.24)">
                <path d="M2515.49,1527.19L2514.42,1527.19C2514.13,1527.19 2513.89,1527.02 2513.89,1526.82L2513.89,1523.07C2513.89,1522.87 2514.13,1522.7 2514.42,1522.7L2515.49,1522.7L2515.49,1522.69C2515.49,1521.91 2516.22,1521.29 2517.11,1521.29L2526.84,1521.29C2527.74,1521.29 2528.46,1521.91 2528.46,1522.69L2528.46,1536.64C2528.46,1537.41 2527.74,1538.04 2526.84,1538.04L2517.11,1538.04C2516.22,1538.04 2515.49,1537.41 2515.49,1536.64L2515.49,1527.19Z" style="fill:rgb(255,204,11);"/>
            </g>
            <g transform="matrix(4.82191,0,0,4.82191,3071.93,1481.82)">
                <path d="M1.625,0L1,0C0.448,0 0,0.448 0,1L0,11.188C0,11.74 0.448,12.188 1,12.188L7.125,12.188C7.677,12.188 8.125,11.74 8.125,11.188L8.125,10.563L2.625,10.563C2.073,10.563 1.625,10.115 1.625,9.563L1.625,0Z" style="fill:rgb(134,101,60);"/>
            </g>
            <g transform="matrix(4.82191,0,0,4.82191,3071.93,1481.82)">
                <path d="M1.625,0L1,0C0.448,0 0,0.448 0,1L0,11.188C0,11.74 0.448,12.188 1,12.188L7.125,12.188C7.677,12.188 8.125,11.74 8.125,11.188L8.125,10.563L2.625,10.563C2.073,10.563 1.625,10.115 1.625,9.563L1.625,0Z" style="fill-opacity:0.2;"/>
            </g>
        </g>
    </g>
</svg>
