<?xml version="1.0" encoding="UTF-8" standalone="no"?>
<!DOCTYPE svg PUBLIC "-//W3C//DTD SVG 1.1//EN" "http://www.w3.org/Graphics/SVG/1.1/DTD/svg11.dtd">
<svg width="100%" height="100%" viewBox="0 0 23 30" version="1.1" xmlns="http://www.w3.org/2000/svg" xmlns:xlink="http://www.w3.org/1999/xlink" xml:space="preserve" xmlns:serif="http://www.serif.com/" style="fill-rule:evenodd;clip-rule:evenodd;stroke-linejoin:round;stroke-miterlimit:2;">
    <g transform="matrix(1,0,0,1,-2573,-1553)">
        <g transform="matrix(0.347558,0,0,0.347558,1464.12,1046.54)">
            <g transform="matrix(0,-4.82191,-4.82191,0,3242.63,1496.23)">
                <circle cx="3.9" cy="3.9" r="3.9" style="fill:rgb(134,101,60);"/>
            </g>
            <g transform="matrix(0,-4.82191,-4.82191,0,3242.63,1496.23)">
                <circle cx="3.9" cy="3.9" r="3.9" style="fill-opacity:0.2;"/>
            </g>
            <g transform="matrix(4.82191,0,0,4.82191,3192.48,1500.41)">
                <path d="M0,5C0,2.239 2.239,0 5,0L8,0C10.761,0 13,2.239 13,5L13,8.667L0,8.667L0,5Z" style="fill:rgb(255,204,11);fill-rule:nonzero;"/>
            </g>
        </g>
    </g>
</svg>
